<svg id="Ebene_1" data-name="Ebene 1" xmlns="http://www.w3.org/2000/svg" viewBox="0 0 200 144.43"><defs><style>.cls-1{fill:#fff;}</style></defs><title>debunkCMS-logo</title><path class="cls-1" d="M114.86,144.43c-10.26,0-18.61-8.11-18.61-18.09s8.35-18,18.61-18A18.63,18.63,0,0,1,127.35,113a3.29,3.29,0,1,1-4.39,4.9,12.09,12.09,0,0,0-8.1-3c-6.63,0-12,5.14-12,11.46a11.79,11.79,0,0,0,12,11.51,12.13,12.13,0,0,0,8.26-3.22,3.29,3.29,0,1,1,4.47,4.83A18.64,18.64,0,0,1,114.86,144.43Z"/><path class="cls-1" d="M152.39,144.43h0a3.31,3.31,0,0,1-3-2l-7.94-17.86L140,141.22a3.29,3.29,0,0,1-6.56-.56L136,111.31a3.29,3.29,0,0,1,6.28-1.06L152.39,133l10.12-22.79a3.29,3.29,0,0,1,6.29,1l2.56,29.35a3.29,3.29,0,1,1-6.56.57l-1.45-16.64-7.95,17.9A3.31,3.31,0,0,1,152.39,144.43Z"/><path class="cls-1" d="M188.42,144.28h-.55c-5.6-.21-8.83-2.14-11.16-6.7a3.29,3.29,0,1,1,5.85-3c1.15,2.23,2.11,3,5.54,3.12a6.58,6.58,0,0,0,4-1,3.07,3.07,0,0,0,1.35-2.56c.09-2.39-1-2.94-2.44-3.71l-.14-.07L184.25,127c-2.72-1.38-5.89-3.62-6.08-8.64a9.75,9.75,0,0,1,2.74-7.08,10.45,10.45,0,0,1,7.64-3.1c6.47,0,9.16,4.21,9.44,4.69l-5.66,3.36,0,.08c-.11-.16-1.14-1.55-3.83-1.55a3.85,3.85,0,0,0-2.9,1.08,3.21,3.21,0,0,0-.9,2.27c.05,1.37.4,2,2.5,3l6.77,3.49a9.91,9.91,0,0,1,6,9.77,9.66,9.66,0,0,1-4.11,7.7A12.91,12.91,0,0,1,188.42,144.28Z"/><path class="cls-1" d="M35.08,92.58a8.59,8.59,0,0,1-8.5-7.2l-3.2-18.13a8.71,8.71,0,0,1,7.06-10.08l2.37-.42A9.08,9.08,0,0,1,35,56.63l-1.74-9.87a3.29,3.29,0,1,1,6.48-1.14l3.2,18.19h0l3.19,18.13A8.66,8.66,0,0,1,39,92h0l-2.37.42A9.46,9.46,0,0,1,35.08,92.58Zm3.38-3.8h0ZM34.34,63.2a2.34,2.34,0,0,0-.38,0l-2.38.42a2.1,2.1,0,0,0-1.72,2.46l3.2,18.13A2.07,2.07,0,0,0,35.51,86l2.38-.41a2.17,2.17,0,0,0,1.38-.86,2.07,2.07,0,0,0,.34-1.6L36.41,65h0a2.11,2.11,0,0,0-.87-1.37A2.06,2.06,0,0,0,34.34,63.2Z"/><path class="cls-1" d="M61.62,87.9a9,9,0,0,1-8.8-7.39l-1.55-8.82a.06.06,0,0,1,0,0s0,0,0-.05l-1.54-8.76A8.94,8.94,0,0,1,57,52.49l2.49-.44A9.07,9.07,0,0,1,69.8,59.29h0l1.55,8.8a3.24,3.24,0,0,1-.54,2.46,3.28,3.28,0,0,1-2.13,1.36L58.31,73.75l1,5.62A2.32,2.32,0,0,0,62,81.28l2.49-.44a2.36,2.36,0,0,0,2-2.25,3.29,3.29,0,1,1,6.58.18,9,9,0,0,1-7.38,8.55l-2.49.44A9.32,9.32,0,0,1,61.62,87.9ZM61,58.5a1.47,1.47,0,0,0-.36,0L58.1,59a2.33,2.33,0,0,0-1.91,2.73l1,5.56L64.3,66l-1-5.56h0A2.47,2.47,0,0,0,61,58.5Z"/><path class="cls-1" d="M88.32,83.2A8.7,8.7,0,0,1,79.79,76L76.6,57.89v-.07l-3.2-18.14a3.29,3.29,0,0,1,6.49-1.14l1.74,9.86a8.12,8.12,0,0,1,2-.6l2.32-.41A8.68,8.68,0,0,1,96,54.45l3.2,18.13a8.66,8.66,0,0,1-7.06,10.08l-2.32.4A8.44,8.44,0,0,1,88.32,83.2ZM83.07,56.7l3.2,18.15a2.07,2.07,0,0,0,2.4,1.73L91,76.17a2,2,0,0,0,1.72-2.45L89.51,55.59a2.11,2.11,0,0,0-.87-1.37,2.08,2.08,0,0,0-1.59-.35l-2.32.41A2.09,2.09,0,0,0,83.07,56.7Z"/><path class="cls-1" d="M114,78.53c-4.63,0-7.28-2.69-8.27-8.29h0l-4-22.41a3.9,3.9,0,0,1,0-.58,3.3,3.3,0,0,1,6.54-.57l4,22.42c.56,3.19.82,3.14,3.29,2.71,1.64-.29,4.4-1.89,4.06-4l-3.94-22.39a2.9,2.9,0,0,1,0-.58,3.29,3.29,0,0,1,6.53-.57l4,22.41v0h0v0c1,6-4.14,10.65-9.42,11.58A15.85,15.85,0,0,1,114,78.53Z"/><path class="cls-1" d="M136.68,74.75A3.3,3.3,0,0,1,133.45,72l-3.94-22.35v0h0v0c-1-6,4.14-10.65,9.42-11.58,2.07-.37,4.75-.59,7.06,1,2.58,1.74,3.4,4.88,3.79,7.09l3.94,22.35a3.29,3.29,0,1,1-6.48,1.15l-3.94-22.36c-.42-2.36-1-2.76-1-2.77s-.45-.26-2.24.05-4.4,1.89-4.07,4l3.94,22.34a3.66,3.66,0,0,1,0,.57,3.3,3.3,0,0,1-2.72,3.24A3.79,3.79,0,0,1,136.68,74.75Z"/><path class="cls-1" d="M163.72,70a3.29,3.29,0,0,1-3.23-2.72l-7.35-41.64a3.3,3.3,0,1,1,6.49-1.15l3,16.9,3.89-7a3.29,3.29,0,0,1,5.75,3.21L165.16,50.3l13.57,11.62a3.29,3.29,0,0,1-4.28,5l-8.64-7.4,1.16,6.6a3.3,3.3,0,0,1-2.67,3.81A3.79,3.79,0,0,1,163.72,70Z"/><path class="cls-1" d="M24.33,112.91a14.6,14.6,0,0,1-14.35-12L.22,45.51A14.61,14.61,0,0,1,12.05,28.63L173.13.22A14.6,14.6,0,0,1,190,12.05l9.76,55.35A14.61,14.61,0,0,1,188,84.28L26.87,112.69A14.61,14.61,0,0,1,24.33,112.91ZM175.67,6.58a7.45,7.45,0,0,0-1.4.13L13.19,35.11a8,8,0,0,0-6.48,9.26l9.76,55.35a8,8,0,0,0,9.26,6.49L186.81,77.8h0a8,8,0,0,0,6.48-9.26l-9.76-55.35A8,8,0,0,0,175.67,6.58Z"/></svg>